<svg id="visual" viewBox="0 0 960 300" width="960" height="300" xmlns="http://www.w3.org/2000/svg" xmlns:xlink="http://www.w3.org/1999/xlink" version="1.1"><rect x="0" y="0" width="960" height="300" fill="#0E1821"></rect><path d="M0 82L22.8 88.3C45.7 94.7 91.3 107.3 137 109C182.7 110.7 228.3 101.3 274 100.7C319.7 100 365.3 108 411.2 108.2C457 108.3 503 100.7 548.8 97.2C594.7 93.7 640.3 94.3 686 96.7C731.7 99 777.3 103 823 104.8C868.7 106.7 914.3 106.3 937.2 106.2L960 106L960 0L937.2 0C914.3 0 868.7 0 823 0C777.3 0 731.7 0 686 0C640.3 0 594.7 0 548.8 0C503 0 457 0 411.2 0C365.3 0 319.7 0 274 0C228.3 0 182.7 0 137 0C91.3 0 45.7 0 22.8 0L0 0Z" fill="#ed735c"></path><path d="M0 84L22.8 83.2C45.7 82.3 91.3 80.7 137 81.3C182.7 82 228.3 85 274 82.8C319.7 80.7 365.3 73.3 411.2 72.5C457 71.7 503 77.3 548.8 81.5C594.7 85.7 640.3 88.3 686 88.8C731.7 89.3 777.3 87.7 823 82.8C868.7 78 914.3 70 937.2 66L960 62L960 0L937.2 0C914.3 0 868.7 0 823 0C777.3 0 731.7 0 686 0C640.3 0 594.7 0 548.8 0C503 0 457 0 411.2 0C365.3 0 319.7 0 274 0C228.3 0 182.7 0 137 0C91.3 0 45.7 0 22.8 0L0 0Z" fill="#e0ab71"></path><path d="M0 65L22.8 65C45.7 65 91.3 65 137 62.7C182.7 60.3 228.3 55.7 274 54.3C319.7 53 365.3 55 411.2 57.8C457 60.7 503 64.3 548.8 64.3C594.7 64.3 640.3 60.7 686 60.3C731.7 60 777.3 63 823 60.3C868.7 57.7 914.3 49.3 937.2 45.2L960 41L960 0L937.2 0C914.3 0 868.7 0 823 0C777.3 0 731.7 0 686 0C640.3 0 594.7 0 548.8 0C503 0 457 0 411.2 0C365.3 0 319.7 0 274 0C228.3 0 182.7 0 137 0C91.3 0 45.7 0 22.8 0L0 0Z" fill="#d8d6ad"></path><path d="M0 24L22.8 22.5C45.7 21 91.3 18 137 20.3C182.7 22.7 228.3 30.3 274 31C319.7 31.7 365.3 25.3 411.2 25.7C457 26 503 33 548.8 37C594.7 41 640.3 42 686 42.3C731.7 42.7 777.3 42.3 823 41.8C868.7 41.3 914.3 40.7 937.2 40.3L960 40L960 0L937.2 0C914.3 0 868.7 0 823 0C777.3 0 731.7 0 686 0C640.3 0 594.7 0 548.8 0C503 0 457 0 411.2 0C365.3 0 319.7 0 274 0C228.3 0 182.7 0 137 0C91.3 0 45.7 0 22.8 0L0 0Z" fill="#f0f4ef"></path></svg>