<svg id="visual" viewBox="0 0 960 540" width="960" height="540" xmlns="http://www.w3.org/2000/svg" xmlns:xlink="http://www.w3.org/1999/xlink" version="1.1"><path d="M0 421L22.8 410.8C45.7 400.7 91.3 380.3 137 385.7C182.7 391 228.3 422 274 423.5C319.7 425 365.3 397 411.2 395C457 393 503 417 548.8 424.5C594.7 432 640.3 423 686 418.3C731.7 413.7 777.3 413.3 823 418.5C868.7 423.7 914.3 434.3 937.2 439.7L960 445L960 541L937.2 541C914.3 541 868.7 541 823 541C777.3 541 731.7 541 686 541C640.3 541 594.7 541 548.8 541C503 541 457 541 411.2 541C365.3 541 319.7 541 274 541C228.3 541 182.7 541 137 541C91.3 541 45.7 541 22.8 541L0 541Z" fill="#ED735C" stroke-linecap="round" stroke-linejoin="miter"></path></svg>