<svg id="visual" viewBox="0 0 960 540" width="960" height="540" xmlns="http://www.w3.org/2000/svg" xmlns:xlink="http://www.w3.org/1999/xlink" version="1.1"><rect x="0" y="0" width="960" height="540" fill="#0E1821"></rect><path d="M0 188L22.8 189.5C45.7 191 91.3 194 137 189C182.7 184 228.3 171 274 172C319.7 173 365.3 188 411.2 198.8C457 209.7 503 216.3 548.8 213.8C594.7 211.3 640.3 199.7 686 190.2C731.7 180.7 777.3 173.3 823 165.5C868.7 157.7 914.3 149.3 937.2 145.2L960 141L960 0L937.2 0C914.3 0 868.7 0 823 0C777.3 0 731.7 0 686 0C640.3 0 594.7 0 548.8 0C503 0 457 0 411.2 0C365.3 0 319.7 0 274 0C228.3 0 182.7 0 137 0C91.3 0 45.7 0 22.8 0L0 0Z" fill="#98badf"></path><path d="M0 113L22.8 114.5C45.7 116 91.3 119 137 128.8C182.7 138.7 228.3 155.3 274 156.2C319.7 157 365.3 142 411.2 131.8C457 121.7 503 116.3 548.8 121.2C594.7 126 640.3 141 686 139.7C731.7 138.3 777.3 120.7 823 120.5C868.7 120.3 914.3 137.7 937.2 146.3L960 155L960 0L937.2 0C914.3 0 868.7 0 823 0C777.3 0 731.7 0 686 0C640.3 0 594.7 0 548.8 0C503 0 457 0 411.2 0C365.3 0 319.7 0 274 0C228.3 0 182.7 0 137 0C91.3 0 45.7 0 22.8 0L0 0Z" fill="#baa1dd"></path><path d="M0 121L22.8 112C45.7 103 91.3 85 137 84C182.7 83 228.3 99 274 102.5C319.7 106 365.3 97 411.2 98.2C457 99.3 503 110.7 548.8 116.7C594.7 122.7 640.3 123.3 686 117.5C731.7 111.7 777.3 99.3 823 95.7C868.7 92 914.3 97 937.2 99.5L960 102L960 0L937.2 0C914.3 0 868.7 0 823 0C777.3 0 731.7 0 686 0C640.3 0 594.7 0 548.8 0C503 0 457 0 411.2 0C365.3 0 319.7 0 274 0C228.3 0 182.7 0 137 0C91.3 0 45.7 0 22.8 0L0 0Z" fill="#e981ad"></path><path d="M0 42L22.8 39.8C45.7 37.7 91.3 33.3 137 37.5C182.7 41.7 228.3 54.3 274 54.8C319.7 55.3 365.3 43.7 411.2 42.7C457 41.7 503 51.3 548.8 52C594.7 52.7 640.3 44.3 686 39.7C731.7 35 777.3 34 823 38.2C868.7 42.3 914.3 51.7 937.2 56.3L960 61L960 0L937.2 0C914.3 0 868.7 0 823 0C777.3 0 731.7 0 686 0C640.3 0 594.7 0 548.8 0C503 0 457 0 411.2 0C365.3 0 319.7 0 274 0C228.3 0 182.7 0 137 0C91.3 0 45.7 0 22.8 0L0 0Z" fill="#ed735c"></path></svg>